<?xml version="1.0" standalone="no"?>
<!DOCTYPE svg PUBLIC "-//W3C//DTD SVG 20010904//EN"
 "http://www.w3.org/TR/2001/REC-SVG-20010904/DTD/svg10.dtd">
<svg version="1.0" xmlns="http://www.w3.org/2000/svg"
 width="854.000000pt" height="92.000000pt" viewBox="0 0 854.000000 92.000000"
 preserveAspectRatio="xMidYMid meet">
<metadata>
Created by potrace 1.16, written by Peter Selinger 2001-2019
</metadata>
<g transform="translate(0.000000,92.000000) scale(0.100000,-0.100000)"
fill="#000000" stroke="none">
<path d="M2207 712 c-15 -16 -17 -48 -17 -238 0 -158 3 -223 12 -232 16 -16
65 -15 75 1 4 6 10 77 13 157 l5 145 98 -152 c54 -83 105 -154 113 -157 33
-13 73 -6 84 13 15 29 14 453 -2 469 -16 16 -65 15 -75 0 -4 -7 -10 -78 -13
-157 l-5 -144 -95 143 c-52 79 -101 149 -108 157 -19 19 -66 16 -85 -5z"/>
<path d="M4556 714 c-3 -9 -6 -49 -6 -91 l0 -75 -34 21 c-44 28 -119 28 -164
1 -62 -38 -90 -152 -59 -238 15 -41 62 -90 93 -98 43 -11 114 2 138 25 l24 22
6 -25 c5 -20 13 -26 34 -26 15 0 33 5 40 12 17 17 17 459 0 476 -17 17 -65 15
-72 -4z m-50 -217 c22 -19 28 -34 32 -80 4 -52 2 -58 -26 -87 -37 -36 -62 -38
-99 -6 -25 22 -28 31 -28 86 0 55 3 64 28 86 35 30 59 30 93 1z"/>
<path d="M7332 718 c-9 -9 -12 -76 -12 -238 0 -237 2 -250 45 -250 36 0 48 16
53 74 3 36 11 61 22 71 17 16 19 15 33 -7 92 -146 86 -139 120 -136 52 5 49
43 -12 139 -28 44 -51 82 -51 85 0 2 16 18 35 35 40 35 52 64 35 84 -25 30
-62 17 -122 -42 l-58 -57 0 101 c0 124 -9 153 -48 153 -15 0 -33 -5 -40 -12z"/>
<path d="M272 708 c-17 -17 -17 -449 0 -466 15 -15 61 -15 76 0 8 8 12 46 12
105 0 92 0 93 25 93 48 0 75 -23 134 -117 57 -88 62 -93 95 -93 52 0 61 24 31
87 -13 28 -40 69 -60 91 l-36 41 38 20 c48 24 68 60 67 120 -1 56 -26 99 -71
117 -43 18 -293 20 -311 2z m259 -87 c24 -29 24 -53 1 -81 -15 -19 -31 -24
-95 -28 l-77 -5 0 73 0 72 76 -4 c65 -3 79 -7 95 -27z"/>
<path d="M1132 708 c-7 -7 -12 -36 -12 -65 0 -46 -3 -53 -20 -53 -25 0 -41
-30 -29 -53 6 -9 19 -17 29 -17 19 0 20 -8 20 -123 0 -116 1 -125 23 -145 18
-17 36 -22 78 -22 65 0 92 16 87 51 -3 21 -8 24 -42 24 -49 0 -54 12 -55 128
l-1 87 29 0 c63 0 65 62 2 68 -30 3 -31 4 -31 56 0 56 -12 76 -45 76 -12 0
-26 -5 -33 -12z"/>
<path d="M3302 708 c-7 -7 -12 -36 -12 -65 0 -46 -3 -53 -20 -53 -25 0 -41
-30 -29 -53 6 -9 19 -17 29 -17 19 0 20 -8 20 -123 0 -116 1 -125 23 -145 18
-17 36 -22 78 -22 65 0 92 16 87 51 -3 21 -8 24 -42 24 -49 0 -54 12 -55 128
l-1 87 29 0 c63 0 65 62 2 68 -30 3 -31 4 -31 56 0 56 -12 76 -45 76 -12 0
-26 -5 -33 -12z"/>
<path d="M5210 702 c-69 -35 -100 -109 -100 -243 0 -75 4 -94 28 -139 34 -66
75 -90 153 -90 90 0 153 54 165 141 8 61 -22 130 -68 159 -40 24 -107 26 -148
5 -29 -15 -30 -15 -30 6 0 36 30 87 60 99 34 14 59 3 84 -35 20 -30 62 -31 80
-3 15 25 -18 83 -59 102 -44 21 -122 20 -165 -2z m128 -236 c8 -7 16 -31 19
-53 14 -108 -93 -153 -133 -56 -19 45 -10 87 24 113 28 22 65 20 90 -4z"/>
<path d="M5703 698 c-31 -35 -198 -260 -212 -286 -10 -19 -10 -28 4 -48 15
-23 21 -24 115 -24 l100 0 0 -43 c0 -47 13 -67 45 -67 32 0 45 20 45 66 0 41
1 43 33 46 28 3 32 6 32 33 0 27 -4 30 -32 33 l-33 3 0 143 c0 97 -4 146 -12
154 -19 19 -63 14 -85 -10z"/>
<path d="M6096 704 c-14 -13 -16 -47 -16 -219 0 -112 4 -215 10 -229 7 -20 17
-26 38 -26 49 0 52 11 53 184 l1 161 42 -163 c23 -90 49 -168 57 -173 23 -14
65 -10 82 9 9 9 34 87 55 172 l40 155 1 -161 c1 -176 5 -188 57 -182 40 4 46
40 42 270 -2 163 -6 200 -18 208 -8 5 -41 10 -73 10 -56 0 -58 -1 -71 -32 -7
-18 -26 -84 -42 -145 -16 -62 -31 -113 -35 -113 -3 0 -21 57 -39 128 -18 70
-36 135 -42 145 -12 23 -119 25 -142 1z"/>
<path d="M8092 708 c-7 -7 -12 -36 -12 -65 0 -46 -3 -53 -20 -53 -25 0 -41
-30 -29 -53 6 -9 19 -17 29 -17 19 0 20 -8 20 -123 0 -116 1 -125 23 -145 18
-17 36 -22 78 -22 65 0 92 16 87 51 -3 21 -8 24 -42 24 -49 0 -54 12 -55 128
l-1 87 29 0 c63 0 65 62 2 68 -30 3 -31 4 -31 56 0 56 -12 76 -45 76 -12 0
-26 -5 -33 -12z"/>
<path d="M776 567 c-53 -30 -77 -79 -77 -156 -1 -117 61 -181 174 -181 69 0
116 18 145 55 28 35 28 51 1 66 -18 9 -26 7 -48 -10 -46 -37 -82 -53 -107 -47
-32 8 -64 45 -64 73 0 23 2 23 108 23 121 0 132 5 132 61 0 46 -35 99 -80 121
-50 26 -135 23 -184 -5z"/>
<path d="M1350 571 c-5 -11 -10 -83 -10 -161 0 -78 5 -150 10 -161 12 -22 62
-26 78 -6 5 6 12 60 14 119 4 132 16 151 86 141 49 -7 74 11 65 46 -11 42
-107 56 -139 20 l-18 -20 -8 20 c-10 28 -63 29 -78 2z"/>
<path d="M1700 583 c-125 -51 -149 -246 -39 -324 29 -20 46 -24 111 -24 85 0
114 14 156 75 17 26 22 47 22 100 0 53 -5 74 -22 100 -39 57 -71 74 -146 77
-37 1 -74 0 -82 -4z m110 -78 c52 -27 62 -127 19 -174 -42 -45 -108 -32 -130
27 -18 45 -5 113 26 139 31 27 46 28 85 8z"/>
<path d="M2690 571 c-5 -11 -10 -83 -10 -161 0 -78 5 -150 10 -161 12 -22 59
-26 78 -7 8 8 12 60 12 168 0 108 -4 160 -12 168 -19 19 -66 15 -78 -7z"/>
<path d="M2872 578 c-17 -17 -17 -319 0 -336 19 -19 66 -15 78 7 5 11 10 64
10 119 0 80 3 104 18 120 23 28 62 36 87 18 18 -13 20 -28 23 -133 2 -65 8
-124 14 -130 6 -7 24 -13 39 -13 40 0 49 28 49 148 0 125 -12 167 -53 192 -41
26 -112 26 -153 1 -30 -18 -31 -18 -42 0 -14 21 -52 25 -70 7z"/>
<path d="M3566 567 c-53 -30 -77 -79 -77 -156 -1 -117 61 -181 174 -181 69 0
116 18 145 55 28 35 28 51 1 66 -18 9 -26 7 -48 -10 -46 -37 -82 -53 -107 -47
-32 8 -64 45 -64 73 0 23 2 23 108 23 121 0 132 5 132 61 0 46 -35 99 -80 121
-50 26 -135 23 -184 -5z"/>
<path d="M3912 578 c-17 -17 -17 -319 0 -336 19 -19 66 -15 78 7 5 11 10 64
10 119 0 80 3 104 18 120 23 28 62 36 87 18 18 -13 20 -28 23 -133 2 -65 8
-124 14 -130 6 -7 24 -13 39 -13 40 0 49 28 49 148 0 125 -12 167 -53 192 -41
26 -112 26 -153 1 -30 -18 -31 -18 -42 0 -14 21 -52 25 -70 7z"/>
<path d="M4810 583 c-125 -51 -149 -246 -39 -324 29 -20 46 -24 111 -24 85 0
114 14 156 75 17 26 22 47 22 100 0 53 -5 74 -22 100 -39 57 -71 74 -146 77
-37 1 -74 0 -82 -4z m110 -78 c52 -27 62 -127 19 -174 -42 -45 -108 -32 -130
27 -18 45 -5 113 26 139 31 27 46 28 85 8z"/>
<path d="M6683 570 c-43 -19 -62 -52 -49 -85 7 -20 65 -20 73 0 17 46 125 57
138 14 4 -11 5 -23 2 -26 -3 -2 -41 -13 -84 -24 -99 -25 -121 -36 -140 -72
-21 -41 -9 -90 28 -121 39 -33 111 -35 170 -5 l41 20 15 -21 c11 -15 23 -20
46 -18 l32 3 -4 130 c-4 146 -15 186 -60 209 -43 23 -155 21 -208 -4z"/>
<path d="M7040 571 c-5 -11 -10 -83 -10 -161 0 -78 5 -150 10 -161 12 -22 62
-26 78 -6 5 6 12 60 14 119 4 132 16 151 86 141 49 -7 74 11 65 46 -11 42
-107 56 -139 20 l-18 -20 -8 20 c-10 28 -63 29 -78 2z"/>
<path d="M7726 567 c-53 -30 -77 -79 -77 -156 -1 -117 61 -181 174 -181 69 0
116 18 145 55 28 35 28 51 1 66 -18 9 -26 7 -48 -10 -46 -37 -82 -53 -107 -47
-32 8 -64 45 -64 73 0 23 2 23 108 23 121 0 132 5 132 61 0 46 -35 99 -80 121
-50 26 -135 23 -184 -5z"/>
</g>
</svg>
